<svg xmlns="http://www.w3.org/2000/svg" width="1440" height="1200" preserveAspectRatio="none">
    <path id="p0" fill="#0e2a47" d="M0 0h1440v1200H0z" />
    <path id="p1"
        d="M0 413.853c98.847 8.759 199.912 79.357 289.387 36.442 89.443-42.9 108.74-159.471 152.615-248.44C487.328 109.944 579.198 19.227 550.48-79.147c-29.295-100.35-169.388-113.318-244.744-185.774-65.629-63.104-87.398-164.337-166.415-209.600-88.45-50.626-194.785-74.945-294.586-54.3-103.3 21.369-193.021 87.464-259.936 169.011-65.871 80.274-101.516 180.672-111.796 284.003-9.99 100.412 5.041 203.601 54.537 291.536 47.35 84.123 125.231 148.683 214.256 186.008C-177.101 435.777-87.6 406.091 0 413.853"
        fill="#0b2239" />
    
    <use href="#p1" y="1200" x="-20" transform="scale(-1,1)"  />
    <path id="p2"
        d="M1440 944.04c76.6 7.673 154.644-1.751 223.292-36.591 73.087-37.093 131.393-96.158 175.006-165.552 48.227-76.736 90.481-161.131 87.232-251.706-3.416-95.232-35.551-194.788-105.600-259.432-67.947-62.735-169.627-60.08-260.284-78.354-82.54-16.638-164.355-42.95-246.341-23.77-84.588 19.789-159.358 68.638-218.288 132.466-60.175 65.177-109.882 143.979-118.46 232.271-8.412 86.592 21.318 174.68 72.059 245.351 46.155 64.283 124.991 89.929 195.069 126.695 63.702 33.421 124.701 71.452 196.28 78.622"
        fill="#113255" />

</svg>